<?xml version="1.0" standalone="no"?>
<!DOCTYPE svg PUBLIC "-//W3C//DTD SVG 20010904//EN"
 "http://www.w3.org/TR/2001/REC-SVG-20010904/DTD/svg10.dtd">
<svg version="1.0" xmlns="http://www.w3.org/2000/svg"
 width="256.000000pt" height="256.000000pt" viewBox="0 0 256.000000 256.000000"
 preserveAspectRatio="xMidYMid meet">
<metadata>
Created by potrace 1.14, written by Peter Selinger 2001-2017
</metadata>
<g transform="translate(0.000000,256.000000) scale(0.100000,-0.100000)"
fill="#000000" stroke="none">
<path d="M1140 2401 c0 -11 -6 -26 -14 -33 -7 -8 -17 -25 -21 -38 -10 -30
-125 -145 -155 -155 -26 -8 -100 -82 -100 -100 0 -8 -5 -15 -11 -17 -6 -2 -13
-31 -16 -65 l-6 -61 -44 -6 c-31 -4 -54 -15 -78 -39 -19 -19 -35 -39 -35 -46
0 -6 -4 -11 -10 -11 -5 0 -10 -11 -10 -24 0 -14 -7 -31 -15 -40 -8 -8 -15 -21
-15 -28 0 -19 -23 -68 -32 -68 -5 0 -8 -4 -8 -10 0 -18 17 -10 30 15 7 14 17
25 22 25 4 0 8 -11 8 -25 0 -14 -3 -25 -8 -25 -4 0 -13 -15 -21 -32 -8 -18
-19 -36 -25 -40 -7 -5 -7 -8 2 -8 7 0 15 8 19 18 3 9 14 25 24 34 16 16 17 14
12 -45 -3 -34 -10 -63 -14 -65 -12 -5 -11 -32 0 -32 5 0 12 14 16 30 4 17 10
30 15 30 4 0 11 11 14 25 9 37 26 30 26 -10 0 -19 -4 -35 -9 -35 -4 0 -11 -21
-14 -46 -2 -26 -9 -49 -14 -53 -10 -6 -25 -41 -18 -41 2 0 17 12 32 26 25 24
28 24 32 8 2 -11 7 -21 11 -24 4 -3 10 -26 14 -52 6 -40 5 -48 -8 -48 -9 0
-16 -4 -16 -10 0 -5 -7 -10 -15 -10 -9 0 -18 -7 -21 -15 -4 -8 -11 -15 -18
-15 -13 0 -50 -26 -74 -52 -9 -10 -22 -18 -28 -18 -17 0 -104 -89 -104 -106 0
-8 -4 -14 -9 -14 -5 0 -13 -15 -16 -32 -4 -18 -12 -36 -17 -39 -6 -4 -15 -41
-21 -83 -6 -42 -14 -76 -18 -76 -4 0 -10 -14 -14 -30 -4 -17 -10 -30 -15 -30
-5 0 -11 -14 -15 -30 -4 -17 -10 -30 -14 -30 -5 0 -11 -36 -15 -81 -4 -50 -12
-87 -21 -96 -8 -8 -15 -28 -15 -44 0 -16 -4 -29 -10 -29 -5 0 -12 -22 -16 -50
-4 -27 -10 -50 -15 -50 -5 0 -9 -6 -9 -13 0 -8 -16 -30 -35 -50 -34 -35 -46
-67 -25 -67 6 0 10 -7 10 -15 0 -8 -4 -15 -10 -15 -5 0 -10 -6 -10 -13 0 -7
-13 -24 -30 -37 -26 -22 -29 -31 -30 -82 l0 -58 1209 0 c665 0 1216 3 1225 6
12 5 16 21 16 75 0 38 -4 69 -9 69 -4 0 -11 16 -14 35 -6 35 -27 65 -45 65 -6
0 -13 14 -17 30 -4 17 -11 30 -15 30 -5 0 -12 16 -16 35 -3 19 -10 35 -15 35
-5 0 -9 6 -9 14 0 8 -11 24 -25 37 -13 13 -25 30 -25 37 0 6 -4 12 -9 12 -5 0
-13 25 -16 55 -4 30 -11 55 -15 55 -5 0 -11 22 -15 50 -4 27 -10 50 -15 50 -4
0 -10 23 -14 50 -4 28 -11 50 -15 50 -5 0 -12 12 -16 27 -3 15 -11 30 -16 34
-6 3 -15 36 -21 72 -6 37 -14 67 -18 67 -5 0 -11 27 -15 60 -4 33 -11 60 -15
60 -4 0 -10 10 -14 23 -3 13 -17 29 -31 37 -14 7 -25 17 -25 22 0 4 -6 8 -13
8 -7 0 -20 9 -30 20 -9 11 -23 20 -31 20 -8 0 -16 7 -20 15 -3 8 -12 15 -21
15 -8 0 -15 4 -15 9 0 5 -13 12 -30 16 -16 4 -30 10 -30 15 0 5 -13 11 -30 15
-16 4 -30 10 -30 15 0 5 -10 10 -22 12 -38 5 -33 28 6 28 20 0 36 -4 36 -9 0
-5 15 -11 34 -13 24 -3 32 0 29 9 -3 7 -8 13 -13 13 -4 0 -22 15 -41 33 -19
19 -41 37 -49 40 -8 3 0 6 18 6 17 1 32 5 32 10 0 5 25 13 55 16 65 9 71 20
15 29 -22 3 -40 11 -40 16 0 6 -6 10 -13 10 -7 0 -20 9 -30 20 -13 16 -14 20
-3 20 8 0 22 -7 30 -16 9 -8 16 -12 16 -9 0 4 -21 27 -47 51 l-46 44 41 0 c23
0 42 4 42 9 0 5 29 12 65 16 36 3 65 10 65 15 0 4 -22 10 -50 14 -27 4 -50 11
-50 15 0 5 -11 12 -24 15 -13 3 -27 13 -30 22 -5 14 2 16 65 12 50 -3 65 -1
50 6 -12 5 -21 13 -21 18 0 4 -7 8 -15 8 -9 0 -18 6 -21 14 -3 8 -19 18 -35
21 -33 7 -39 25 -9 25 11 0 20 -4 20 -10 0 -5 14 -10 30 -10 17 0 30 4 30 9 0
5 -13 12 -30 16 -16 4 -30 11 -30 15 0 5 -16 12 -35 16 -19 3 -35 10 -35 14 0
5 -10 11 -22 13 l-23 4 23 2 c12 0 22 5 22 10 0 5 10 12 23 14 12 2 2 5 -22 6
l-44 1 23 20 c13 11 27 20 31 20 8 0 119 108 119 116 0 6 -35 -9 -40 -17 -8
-11 -173 -23 -215 -15 -44 9 -42 30 3 34 60 6 32 22 -39 22 -59 0 -68 2 -57
13 7 8 30 20 51 26 20 7 37 16 37 21 0 4 9 10 20 13 11 3 20 10 20 16 0 15
-27 14 -32 -1 -3 -8 -33 -14 -79 -16 -41 -3 -76 -8 -79 -12 -3 -4 -63 -9 -135
-12 -71 -2 -122 -2 -112 0 9 2 17 7 17 12 0 5 14 11 30 15 17 4 30 11 30 15 0
5 16 12 35 16 19 3 35 10 35 14 0 5 12 11 28 13 15 2 -4 2 -43 0 -38 -3 -71
-9 -73 -14 -5 -12 -72 -12 -72 0 0 5 14 12 30 16 31 7 42 25 15 25 -8 0 -15
-4 -15 -10 0 -5 -18 -13 -40 -16 -22 -4 -40 -10 -40 -14 0 -5 -15 -12 -32 -15
-18 -4 -35 -11 -38 -15 -3 -5 -19 -11 -35 -15 -17 -4 -25 -3 -18 2 6 4 15 21
18 36 4 15 11 27 15 27 4 0 10 23 14 50 4 28 11 50 16 50 6 0 10 9 10 20 0 11
-4 20 -10 20 -5 0 -10 -9 -10 -19z"/>
</g>
</svg>
